<?xml version="1.0" encoding="UTF-8"?>
<svg width="752pt" height="752pt" version="1.1" viewBox="0 0 752 752" xmlns="http://www.w3.org/2000/svg">
 <g>
  <path d="m502.92 342.38c0 9.9453-0.94531 19.891-3.3164 29.836-0.47266 2.8398-1.4219 5.2109-1.8945 7.5781-1.8945 6.1562 1.8945 12.785 8.0508 14.68 0.94531 0.47266 2.3672 0.47266 3.3164 0.47266 5.2109 0 9.9453-3.3164 11.367-8.5234 0.94531-2.8398 1.8945-6.1562 2.3672-8.9961 2.8398-11.367 4.2617-23.207 4.2617-35.047 0-24.152-5.2109-46.883-16.102-68.668-2.8398-5.6836-9.9453-8.5234-15.629-5.2109-5.6836 2.8398-8.0508 9.9453-5.2109 15.629 8.5273 18.469 12.789 37.883 12.789 58.25z"/>
  <path d="m219.72 377.42c0.94531 3.3164 1.4219 6.1562 2.3672 8.9961 1.4219 5.2109 6.1562 8.5234 11.367 8.5234 0.94531 0 2.3672 0 3.3164-0.47266 6.1562-1.8945 9.9453-8.5234 8.0508-14.68-0.94531-2.3672-1.4219-5.2109-1.8945-7.5781-2.3672-9.9453-3.3164-19.891-3.3164-29.836 0-20.363 4.7344-39.781 13.262-58.25 2.8398-5.6836 0.47266-12.785-5.2109-15.629-5.6836-2.8398-12.785-0.47266-15.629 5.2109-10.418 21.312-16.102 44.516-16.102 68.668 0 11.84 1.4219 23.68 3.7891 35.047z"/>
  <path d="m240.08 485.4c1.8945 3.7891 6.1562 6.1562 10.418 6.1562h241.53c4.2617 0 8.0508-2.3672 10.418-6.1562 1.8945-3.7891 1.8945-8.0508 0-11.84l-23.207-39.781 0.003907-95.664c0-55.41-42.148-100.87-95.664-107.03v-7.5781c0-6.6289-5.2109-11.84-11.84-11.84-6.6289 0-11.84 5.2109-11.84 11.84v7.5781c-54.461 6.1562-96.137 51.621-96.137 107.03v95.664l-23.207 39.781c-2.3672 3.7891-2.3672 8.5234-0.47266 11.84zm45.465-42.621c0.94531-1.8945 1.4219-3.7891 1.4219-6.1562v-98.508c0-46.41 37.414-83.824 83.824-83.824 46.41 0.003907 84.297 37.414 84.297 83.824v98.977c0 1.8945 0.47266 4.2617 1.4219 6.1562l14.68 25.102-199.85 0.003906z"/>
  <path d="m416.25 509.55c0-6.6289-5.2109-11.84-11.84-11.84-6.6289 0-11.84 5.2109-11.84 11.84 0 11.84-9.4727 21.312-21.312 21.312-11.84 0-21.312-9.4727-21.312-21.312 0-6.6289-5.2109-11.84-11.84-11.84s-11.84 5.2109-11.84 11.84c0 24.625 20.363 44.988 44.988 44.988 24.633 0.003907 44.996-19.887 44.996-44.988z"/>
  <path d="m408.2 281.29c-5.2109-3.7891-12.785-2.3672-16.574 3.3164-3.7891 5.2109-2.3672 12.785 3.3164 16.574 11.84 8.0508 18.469 20.836 18.469 35.047 0 6.6289 5.2109 11.84 11.84 11.84s11.84-5.2109 11.84-11.84c0-22.262-10.895-42.625-28.891-54.938z"/>
  <path d="m192.25 416.73c1.4219 0 2.8398 0 3.7891-0.47266 6.1562-2.3672 9.4727-8.9961 7.1055-15.156-6.6289-18.941-9.9453-38.359-9.9453-58.723 0-32.676 8.9961-64.406 26.047-92.348 3.3164-5.6836 1.4219-12.785-3.7891-16.102-5.6836-3.3164-12.785-1.4219-16.102 3.7891-19.418 31.258-29.363 67.723-29.363 104.66 0 22.73 3.7891 44.988 11.367 66.301 1.418 4.7344 6.1523 8.0508 10.891 8.0508z"/>
  <path d="m548.86 342.38c0 19.891-3.3164 39.781-9.9453 58.723-2.3672 6.1562 0.94531 12.785 7.1055 15.156 1.4219 0.47266 2.8398 0.47266 3.7891 0.47266 4.7344 0 9.4727-2.8398 11.367-8.0508 7.5781-21.312 11.367-43.57 11.367-66.301 0-35.52-9.4727-70.562-27.469-100.87-3.3164-5.6836-10.418-7.5781-16.102-4.2617s-7.5781 10.418-4.2617 16.102c15.625 26.992 24.148 57.773 24.148 89.031z"/>
 </g>
</svg>
