<?xml version="1.0" encoding="UTF-8"?>
<svg width="752pt" height="752pt" version="1.1" viewBox="0 0 752 752" xmlns="http://www.w3.org/2000/svg">
 <path d="m555.67 534.8-94.719-94.719c32.199-39.582 41.738-92.957 25.238-141.24-16.496-48.285-56.707-84.664-106.39-96.266-49.688-11.602-101.85 3.2109-138.02 39.195-35.984 36.176-50.797 88.336-39.195 138.02 11.602 49.688 47.98 89.898 96.266 106.39 48.285 16.5 101.66 6.9609 141.24-25.238l94.719 94.719c3.8086 3.2617 9.0117 4.3711 13.82 2.9492 4.8125-1.4219 8.5742-5.1836 9.9961-9.9961 1.4219-4.8086 0.3125-10.012-2.9492-13.82zm-293.03-104.63c-22.211-22.199-34.695-52.316-34.703-83.719-0.007813-31.406 12.465-61.527 34.668-83.738 22.203-22.207 52.32-34.684 83.727-34.684s61.523 12.477 83.727 34.684c22.207 22.211 34.676 52.332 34.668 83.738-0.003906 31.402-12.488 61.52-34.703 83.719-22.105 22.367-52.242 34.957-83.691 34.957s-61.586-12.59-83.691-34.957z"/>
</svg>
